
<svg version="1.0" xmlns="http://www.w3.org/2000/svg"
 width="120.000000pt" height="63.000000pt" viewBox="0 0 630.000000 630.000000"
 preserveAspectRatio="xMidYMid meet" class="robot-arm">

<g transform="translate(0.000000,630.000000) scale(0.100000,-0.100000)" stroke="none">
<path d="M7165 6282 c-26 -16 -44 -54 -140 -297 l-110 -278 -235 -124 c-129
-68 -236 -126 -238 -128 -2 -2 18 -47 46 -99 57 -105 58 -97 -28 -141 -52 -26
-294 -154 -825 -435 -132 -70 -366 -194 -520 -275 -154 -81 -307 -162 -340
-180 -33 -18 -161 -85 -285 -151 -216 -114 -224 -119 -193 -127 49 -14 161
-105 226 -182 115 -137 221 -321 272 -470 21 -62 28 -101 29 -170 0 -49 -2
-102 -7 -117 l-7 -27 42 23 c42 23 333 180 723 391 110 59 227 123 260 140 58
31 137 74 670 362 482 261 546 295 549 292 2 -2 25 -46 50 -96 25 -51 48 -93
51 -93 6 0 356 184 390 204 11 7 44 21 73 31 28 11 52 25 52 32 0 7 6 13 13
13 7 0 136 -25 287 -55 301 -61 338 -65 374 -42 27 18 53 63 619 1081 129 230
133 248 72 304 -32 29 -42 33 -72 29 -62 -11 -47 13 -399 -618 -109 -195 -227
-407 -263 -471 -39 -70 -72 -118 -81 -118 -32 1 -703 139 -711 147 -8 9 -421
756 -445 807 -15 31 -15 36 14 107 17 41 60 151 97 244 37 94 77 197 90 230
l24 60 73 -3 c40 -2 134 -7 208 -13 204 -14 956 -59 1027 -62 56 -2 64 1 92
27 40 38 43 101 9 141 -30 35 -66 39 -583 70 -231 14 -521 32 -645 40 -279 19
-269 19 -305 -3z"/>
<path d="M3620 3969 c-541 -128 -834 -693 -626 -1204 43 -106 92 -181 179
-271 114 -120 276 -215 437 -255 81 -20 337 -18 416 4 289 80 507 274 614 547
31 77 60 229 60 311 0 93 -32 252 -68 339 -108 256 -317 441 -582 518 -121 34
-311 39 -430 11z m363 -223 c229 -63 419 -257 474 -484 21 -88 20 -238 -1
-322 -62 -238 -266 -435 -501 -485 -250 -53 -491 32 -658 232 -126 151 -176
363 -133 563 53 245 261 450 511 504 84 19 224 15 308 -8z"/>
<path d="M3759 3450 c-169 -28 -299 -179 -299 -345 0 -140 100 -283 232 -331
65 -24 181 -21 251 5 206 80 285 363 147 536 -80 101 -211 155 -331 135z"/>
<path d="M4743 2773 c-35 -145 -124 -292 -259 -425 -136 -134 -281 -221 -436
-263 -38 -10 -68 -21 -68 -24 0 -3 239 -245 530 -536 292 -291 530 -533 530
-537 0 -5 -18 -8 -40 -8 l-40 0 0 -490 0 -490 1160 0 1160 0 0 490 0 490 -338
0 -337 0 -920 920 c-506 506 -922 920 -925 920 -3 0 -10 -21 -17 -47z m2355
-2280 l-3 -308 -972 -3 -973 -2 0 310 0 310 975 0 975 0 -2 -307z"/>
</g>
</svg>
